<?xml version="1.0" encoding="UTF-8" standalone="no" ?>
<!DOCTYPE svg PUBLIC "-//W3C//DTD SVG 1.1//EN" "http://www.w3.org/Graphics/SVG/1.1/DTD/svg11.dtd">
<svg xmlns="http://www.w3.org/2000/svg" xmlns:xlink="http://www.w3.org/1999/xlink" version="1.1" width="508" height="120" viewBox="0 0 508 120" xml:space="preserve">
<desc>Created with Fabric.js 3.6.6</desc>
<defs>
</defs>
<rect x="0" y="0" width="100%" height="100%" fill="rgba(15, 14, 14, 0)"></rect>
<g transform="matrix(4.45 0 0 4.45 253.94 37.29)"  >
<path style="stroke: none; stroke-width: 1; stroke-dasharray: none; stroke-linecap: butt; stroke-dashoffset: 0; stroke-linejoin: miter; stroke-miterlimit: 4; fill: rgb(255,255,255); fill-rule: nonzero; opacity: 1;"  transform=" translate(-57.99, -9.31)" d="M 91.665 4.773 c 3.63 -0.03 4.381 0.36 4.411 1.921 h 0.24 a 3.62 3.62 0 0 1 1.86 -1.741 c 0.78 -0.33 1.949 -0.503 3.45 -0.503 c 1.501 0 2.7 0.12 3.54 0.36 a 4.696 4.696 0 0 1 2.13 1.23 c 0.57 0.6 0.96 1.23 1.11 1.95 c 0.181 0.69 0.27 1.92 0.27 3.63 v 5.7 c -4.559 0 -4.68 -0.03 -4.68 -4.71 v -0.99 c 0 -0.99 -0.03 -1.68 -0.126 -2.04 a 1.851 1.851 0 0 0 -0.48 -0.93 c -0.45 -0.42 -1.5 -0.66 -3.15 -0.66 c -1.62 0 -2.7 0.27 -3.21 0.84 a 2.08 2.08 0 0 0 -0.57 1.11 c -0.09 0.42 -0.126 1.23 -0.126 2.37 v 5.01 h -4.669 V 4.773 z m -90.692 0 c 3.66 -0.03 4.38 0.36 4.41 1.921 h 0.24 c 0.45 -0.81 1.05 -1.41 1.86 -1.741 c 0.81 -0.33 1.95 -0.503 3.48 -0.503 c 1.5 0 2.67 0.12 3.54 0.36 a 4.6 4.6 0 0 1 2.1 1.23 c 0.57 0.6 0.96 1.23 1.14 1.95 c 0.15 0.69 0.24 1.92 0.24 3.63 v 5.7 c -4.56 0 -4.68 -0.03 -4.68 -4.71 v -0.99 c 0 -0.99 -0.03 -1.68 -0.125 -2.04 a 1.644 1.644 0 0 0 -0.48 -0.93 c -0.45 -0.42 -1.5 -0.66 -3.12 -0.66 c -1.65 0 -2.7 0.27 -3.24 0.84 c -0.29 0.305 -0.48 0.693 -0.54 1.11 c -0.09 0.42 -0.15 1.23 -0.15 2.37 v 5.01 H 0.973 V 4.773 z m 35.575 12.51 l -8.82 0.03 c -1.83 0 -3.24 -0.09 -4.2 -0.27 c -0.99 -0.18 -1.74 -0.48 -2.31 -0.93 a 3.493 3.493 0 0 1 -1.257 -1.829 c -0.21 -0.754 -0.33 -1.92 -0.33 -3.51 c 0 -1.2 0.03 -2.1 0.125 -2.701 c 0.081 -0.563 0.251 -1.11 0.503 -1.62 c 0.48 -0.99 1.41 -1.65 2.7 -1.95 c 1.14 -0.27 2.88 -0.39 5.25 -0.39 c 2.071 0 3.54 0.09 4.41 0.21 c 1.5 0.27 2.551 0.84 3.12 1.711 c 0.57 0.871 0.876 2.34 0.876 4.41 c 0 0.21 -0.03 0.628 -0.03 1.29 H 24.313 a 6.38 6.38 0 0 0 0.126 1.35 c 0.084 0.274 0.252 0.516 0.48 0.69 c 0.479 0.36 1.53 0.51 3.18 0.51 h 5.46 c 2.94 0 3.03 1.2 3 3 h -0.01 z m -4.651 -8.129 a 5.532 5.532 0 0 0 -0.126 -1.02 a 0.88 0.88 0 0 0 -0.27 -0.48 c -0.39 -0.42 -1.5 -0.63 -3.24 -0.63 c -1.59 0 -2.64 0.15 -3.15 0.42 c -0.51 0.27 -0.768 0.836 -0.798 1.716 l 7.584 -0.006 z M 40.034 0.99 c 4.56 -0.03 4.651 -0.03 4.68 3.451 h 4.05 c 3.395 0 3.36 1.257 3.36 3.33 h -7.41 v 3.66 c 0 0.99 0.06 1.59 0.21 1.86 c 0.24 0.42 0.78 0.628 1.65 0.628 h 2.79 c 2.85 0 3.33 0.93 3.36 3.36 h -6.57 c -1.47 0 -2.61 -0.06 -3.33 -0.24 c -0.72 -0.15 -1.32 -0.45 -1.77 -0.93 a 2.46 2.46 0 0 1 -0.72 -1.05 c -0.15 -0.39 -0.24 -0.93 -0.27 -1.62 c -0.03 -0.24 -0.03 -0.929 -0.03 -2.011 v -3.65 h -2.19 V 4.445 h 2.19 V 0.989 z m 25.951 11.28 h 4.8 c -0.06 1.05 -0.15 1.83 -0.33 2.4 a 3.578 3.578 0 0 1 -0.87 1.44 c -0.6 0.6 -1.41 1.02 -2.43 1.2 c -1.02 0.21 -2.766 0.33 -5.22 0.33 c -1.92 0 -3.361 -0.09 -4.32 -0.27 c -2.04 -0.33 -3.57 -1.41 -3.69 -3.66 c -0.06 -1.5 -0.21 -5.406 0 -6.18 c 0.479 -1.71 1.886 -2.52 3.57 -2.821 c 0.99 -0.18 2.55 -0.269 4.68 -0.269 c 2.07 0 3.66 0.09 4.71 0.269 c 1.05 0.211 1.885 0.54 2.49 1.02 c 0.485 0.393 0.851 0.914 1.055 1.504 c 0.18 0.571 0.33 1.471 0.36 2.64 h -4.777 c -0.09 -0.719 -0.39 -1.23 -0.96 -1.5 c -0.54 -0.27 -1.529 -0.39 -2.88 -0.39 c -1.41 0 -2.37 0.12 -2.91 0.39 c -0.36 0.15 -0.6 0.45 -0.753 0.87 c -0.154 0.42 -0.21 1.05 -0.21 1.86 c 0 0.812 0.06 1.411 0.24 1.77 a 1.485 1.485 0 0 0 0.81 0.84 c 0.6 0.24 1.56 0.39 2.88 0.39 c 1.382 0 2.31 -0.12 2.82 -0.39 c 0.54 -0.24 0.84 -0.72 0.93 -1.439 l 0.005 -0.004 z m 15.03 -7.826 c 2.13 0 3.72 0.089 4.8 0.24 c 1.05 0.18 1.86 0.479 2.461 0.929 a 3.082 3.082 0 0 1 1.257 1.74 c 0.24 0.72 0.36 1.887 0.36 3.45 c 0 1.17 -0.03 2.04 -0.126 2.61 a 6.14 6.14 0 0 1 -0.355 1.59 c -0.42 1.17 -1.348 1.886 -2.729 2.22 c -1.14 0.27 -3 0.421 -5.64 0.421 c -2.341 0 -4.02 -0.09 -5.04 -0.27 a 5.029 5.029 0 0 1 -2.401 -0.99 a 3.318 3.318 0 0 1 -1.169 -1.86 c -0.21 -0.78 -0.3 -2.07 -0.3 -3.897 c -0.001 -0.782 0.04 -1.563 0.125 -2.34 c 0.078 -0.523 0.24 -1.03 0.48 -1.5 c 0.48 -0.9 1.29 -1.53 2.4 -1.86 c 1.14 -0.3 3.091 -0.48 5.88 -0.48 l -0.003 -0.003 z m 0.03 3.54 c -1.53 0 -2.58 0.12 -3.12 0.36 a 1.466 1.466 0 0 0 -0.84 0.9 c -0.18 0.418 -0.27 1.047 -0.27 1.885 c 0 0.81 0.09 1.41 0.21 1.74 c 0.153 0.367 0.444 0.66 0.81 0.817 c 0.57 0.27 1.65 0.42 3.21 0.42 c 1.77 0 2.91 -0.18 3.42 -0.57 c 0.481 -0.36 0.72 -1.2 0.72 -2.52 c 0 -0.84 -0.06 -1.44 -0.21 -1.83 a 1.7 1.7 0 0 0 -0.84 -0.81 c -0.6 -0.27 -1.62 -0.39 -3.09 -0.39 v -0.002 z m 33.067 -4.436 a 2.623 2.623 0 1 1 -5.247 0 c 0 -1.424 1.166 -2.556 2.631 -2.556 c 1.482 0 2.616 1.132 2.616 2.557 m -4.592 0 c 0 1.131 0.844 2.04 1.993 2.04 c 1.121 0 1.946 -0.906 1.946 -2.029 c 0 -1.122 -0.825 -2.052 -1.963 -2.052 c -1.137 0 -1.976 0.917 -1.976 2.041 z m 1.573 1.34 h -0.59 V 2.33 c 0.323 -0.055 0.651 -0.08 0.978 -0.076 c 0.485 0 0.703 0.077 0.889 0.187 a 0.708 0.708 0 0 1 0.251 0.558 c 0 0.282 -0.218 0.503 -0.53 0.593 v 0.034 c 0.251 0.093 0.39 0.277 0.468 0.62 c 0.076 0.389 0.125 0.545 0.184 0.64 h -0.634 c -0.08 -0.095 -0.126 -0.329 -0.205 -0.63 c -0.046 -0.281 -0.202 -0.403 -0.528 -0.403 h -0.282 l -0.001 1.037 z m 3.036 -2.79 h 0.281 c 0.327 0 0.59 -0.11 0.59 -0.376 c 0 -0.234 -0.171 -0.39 -0.543 -0.39 a 1.371 1.371 0 0 0 -0.328 0.031 V 2.1 z" stroke-linecap="round" />
</g>
<g transform="matrix(1 0 0 1 248.25 103.45)" style=""  >
		<text xml:space="preserve" font-family="'Open Sans', sans-serif" font-size="30" font-style="normal" font-weight="bold" style="stroke: none; stroke-width: 1; stroke-dasharray: ; stroke-linecap: butt; stroke-dashoffset: 0; stroke-linejoin: miter; stroke-miterlimit: 4; fill: rgb(255,255,255); fill-rule: nonzero; opacity: 1; white-space: pre;" ><tspan x="-161.25" y="9.42" >P</tspan><tspan x="-139.08" y="9.42" >o</tspan><tspan x="-117.17" y="9.42" >w</tspan><tspan x="-88.16" y="9.42" >e</tspan><tspan x="-67.1" y="9.42" >r</tspan><tspan x="-50.14" y="9.42" >e</tspan><tspan x="-29.09" y="9.42" >d</tspan><tspan x="-6.77" y="9.42" style="white-space: pre; "> </tspan><tspan x="4.36" y="9.42" >b</tspan><tspan x="26.67" y="9.42" >y</tspan><tspan x="47.07" y="9.42" style="white-space: pre; "> </tspan><tspan x="58.2" y="9.42" >Y</tspan><tspan x="80.25" y="9.42" >a</tspan><tspan x="101.71" y="9.42" >v</tspan><tspan x="122.11" y="9.42" >a</tspan><tspan x="143.56" y="9.42" >r</tspan></text>
</g>
</svg>